# xmcd
#
# Track frame offsets:
#	150
#	27050
#	51252
#	74309
#	92815
#	116283
#	142771
#	165561
#	190463
#	214372
#	239089
#	262867
#
# Disc length: 3781 seconds
#
# Revision: 1
# Processed by: cddbd v1.5.2PL0 Copyright (c) Steve Scherf et al.
# Submitted via: audiograbber 1.83.01
#
DISCID=a70ec30c
DTITLE=Various Artist - Funkymix 129
DYEAR=2009
DGENRE=Hip-Hop
TTITLE0=Chris Brown - I can transform ya 84 bpm
TTITLE1=Beyonce - Video Phone 78 bpm
TTITLE2=DJ Khaled - Drop that 132 bpm
TTITLE3=50 Cent - Baby be me 95 bpm
TTITLE4=Snoop Dogg - Gangsta Luv 102 bpm
TTITLE5=T.I. - Hell of a life 83 bpm
TTITLE6=Pitbull feat Akon - Shut it down 128 bpm
TTITLE7=6Treg - Fresh 77 bpm
TTITLE8=New Boyz - Tie me down 134 bpm
TTITLE9=Jesse McCartney - Body Language 81 bpm
TTITLE10=Sean Paul - Hold my hand 86 bpm
TTITLE11=LMFAO - Shots 128 bpm
EXTD=
EXTT0=
EXTT1=
EXTT2=
EXTT3=
EXTT4=
EXTT5=
EXTT6=
EXTT7=
EXTT8=
EXTT9=
EXTT10=
EXTT11=
PLAYORDER=
